<svg id="Layer_1" data-name="Layer 1" xmlns="http://www.w3.org/2000/svg" viewBox="0 0 561.85 154"><defs><style>.cls-1{fill:#d7b576;}.cls-2{fill:#931818;}</style></defs><title>Artboard 1</title><path class="cls-1" d="M366.28,2.39C381.76,2,395.79,15.8,395.74,32c-.05,15.91-13.93,29.52-29.69,29.47-15.48-.05-29.52-13.51-29.46-29.69C336.64,15.84,350.52,1.87,366.28,2.39Z"/><path class="cls-2" d="M171.74,81.62c0,14.68,0,29.36,0,44,0,1.68-.25,2.82-2.27,2.8-8.82-.09-17.67.52-26.45-.43a28.36,28.36,0,0,1-25.34-25.72c-1.05-13.21,7.57-25.63,20.53-29.61A44.9,44.9,0,0,1,152,70.59c2.83,0,3.35-1,3.28-3.6-.27-9.63-.21-19.27-.42-28.91-.05-2.44.72-3.45,3.23-3.35,3.51.14,7,.11,10.54,0,2.27-.07,3.14.66,3.12,3.1C171.68,52.43,171.74,67,171.74,81.62Zm-16.33,17.5c0-6.58,0-13.16,0-19.74,0-1,.48-2.12-1.46-2.1-7.92.08-14.43,4.58-16.65,12.16a37.58,37.58,0,0,0,.53,22.1c2.13,6.79,8,10.26,15.07,9.74,1.85-.14,2.64-.61,2.59-2.7C155.31,112.09,155.41,105.6,155.41,99.11Z"/><path class="cls-2" d="M506,110.62c0-12.26.07-24.51-.05-36.77,0-2.66.89-3.48,3.45-3.42,9.07.23,18.19-.49,27.2,1.18,18.47,3.42,29.19,20.69,24,38.77-2.87,9.92-10.49,14.12-19.91,15.88a49.47,49.47,0,0,1-15.06.6c-2.17-.26-2.94.14-2.87,2.56.19,6.3,0,12.62.11,18.92,0,2.14-.69,2.93-2.77,2.88-3.6-.08-7.21-.12-10.81,0-2.46.09-3.3-.82-3.28-3.31C506,135.49,506,123.05,506,110.62ZM522.81,98.8c0,6.66.06,13.31,0,20,0,1.68.52,2.12,2.13,2.17,7,.23,12.45-3.25,15.17-9.89a34.49,34.49,0,0,0,2.07-16.69c-.94-9.59-7.87-16.47-17-17.29-1.69-.15-2.36.12-2.32,2C522.89,85.67,522.81,92.23,522.81,98.8Z"/><path class="cls-2" d="M227.42,100.28c0-8.29.07-16.58,0-24.86,0-2.44.71-3.46,3.23-3.35,9,.4,18-.85,27,.62a27.5,27.5,0,0,1,11.05,4.08c8,5.36,8.92,17.48,1.84,23.68a12.08,12.08,0,0,1-5.18,2.79c-1.8.42-1.64,1.12-.76,2.37,4.4,6.24,8.76,12.52,13.12,18.79.15.22.31.44.44.68.56,1,1.81,2,1.34,3.1-.54,1.25-2.1.56-3.2.58-4.05.07-8.11,0-12.16,0a4.11,4.11,0,0,1-4-2.21c-4.19-7.24-7.67-14.84-11.57-22.22-.8-1.52-.32-2,1.13-2.43,8.21-2.4,11.36-10.65,6.94-18.09-1.59-2.67-4.35-3.36-7.07-4-5.31-1.25-5.29-1.21-5.29,4.21,0,13.78-.05,27.57.06,41.35,0,2.45-.88,3.15-3.14,3.09-3.6-.1-7.21-.1-10.81,0-2.25.06-3-.91-2.94-3.09C227.47,117,227.42,108.66,227.42,100.28Z"/><path class="cls-2" d="M7.28,90.07c0,2.4,0,4.44,0,6.48,0,9.82-.08,19.64,0,29.46,0,1.73-.2,2.56-2.27,2.53-5-.09-5,0-5-4.93q0-21.76,0-43.52c0-4.86,2-8.18,5.68-9.34a10.42,10.42,0,0,1,11,3.93c3.59,5.07,7,10.24,10.53,15.37,2.18,3.2,4.35,6.41,6.54,9.59.49.71.89,1.91,1.93,1.51.89-.34.77-1.52.78-2.41,0-1.62,0-3.24,0-4.87q0-26.09,0-52.17c0-3.34.66-3.92,3.88-4,2.44-.07,3.28.9,3.27,3.36-.07,27.3,0,54.61-.07,81.91,0,3.17-.13,6.5-3.83,7.88-2.55.95-5.95-.78-8.37-4.21C23.66,115.67,17,104,9.82,92.7,9.26,91.81,8.94,90.69,7.28,90.07Z"/><path class="cls-2" d="M292.33,81.36c0-14.42,0-28.83,0-43.25,0-2.43.7-3.47,3.22-3.37,3.51.14,7,.12,10.54,0,2.27-.07,3.15.66,3.14,3.09q-.12,43.93,0,87.85c0,2.21-.86,2.84-2.86,2.81-3.6-.06-7.21-.12-10.81,0-2.53.1-3.23-.95-3.22-3.37C292.37,110.55,292.33,96,292.33,81.36Z"/><path class="cls-2" d="M98.73,128.61c-2.3-.24-5.83,1.17-7.82-.53-1.84-1.57-2.24-5-3-7.62-.66-2.2-1.9-3-4.15-2.9-5,.12-10.09.08-15.13,0-1.39,0-2.17.29-2.4,1.79a38.8,38.8,0,0,1-1.11,4.16c-1.41,5.1-2.74,5.87-8.09,5-1.82-.31-.73-1.28-.53-1.92q5-16.08,10.06-32.13c1.49-4.7,3-9.41,4.58-14.07a17,17,0,0,1,5.48-7.86c4.29-3.45,9.69-2.72,13,1.77a33.67,33.67,0,0,1,4.25,9.28c4.8,14.21,9.52,28.44,14.33,42.65.57,1.69.2,2.39-1.56,2.39ZM77.79,84.11h-.52Q72.9,96.9,68.51,109.69c-.35,1-.09,1.44,1.07,1.43,4.59,0,9.19-.06,13.78,0,1.33,0,1.51-.51,1.22-1.6-.73-2.69-1.43-5.38-2.15-8.08Z"/><path class="cls-2" d="M483.83,128.48c-2.79,0-6.12.95-8.2-.26s-2.3-4.87-3.09-7.51c-.73-2.44-2.07-3.23-4.52-3.16-4.95.14-9.9.09-14.86,0-1.39,0-2.16.3-2.4,1.8a38.85,38.85,0,0,1-1.11,4.16c-1.4,5.09-2.76,5.87-8.09,5-1.83-.31-.72-1.29-.53-1.92q5-16.08,10.06-32.13c1.49-4.7,3-9.41,4.58-14.07a17,17,0,0,1,5.48-7.86c4.29-3.45,9.69-2.71,13,1.77a33.7,33.7,0,0,1,4.25,9.28c4.8,14.21,9.52,28.44,14.33,42.65.57,1.69.19,2.39-1.56,2.39h-7.29ZM452.64,111.1c5.13,0,9.89-.1,14.64,0,2,.06,2.17-.58,1.7-2.3-2.11-7.62-4.1-15.27-6.15-22.91-.17-.65,0-1.5-1-1.84Z"/><path class="cls-2" d="M411.85,71.62c7.21,0,14.41.08,21.62,0,2.19,0,3.24.59,3.14,2.83,0,.53.13,1.07.16,1.61.23,4.2-.36,4.81-4.59,4.81-3.33,0-6.67.12-10,0-1.83-.09-2.22.5-2.21,2.23.07,14,0,27.92,0,41.88,0,3.53,0,3.58-3.62,3.59-3.24,0-6.49-.11-9.73,0-2.51.11-3.52-.67-3.5-3.37.13-13.87,0-27.74.15-41.61,0-2.25-.53-2.92-2.78-2.78-3.41.21-6.85,0-10.26.1-2.2.09-3.2-.75-3.16-2.92,0-.45-.13-.89-.13-1.34,0-4.77.15-5,4.89-5Z"/><path class="cls-2" d="M209.06,100.27c0,8.38-.09,16.76.05,25.13,0,2.44-.85,3.17-3.12,3.1-3.6-.11-7.21-.08-10.81,0-2,0-3-.61-3-2.79q.08-25.4,0-50.81c0-1.93.66-2.85,2.65-2.82,3.87,0,7.75.06,11.62,0,2,0,2.62.81,2.6,2.78C209,83.33,209.06,91.8,209.06,100.27Z"/><path class="cls-2" d="M373.49,100.57c0,8.29-.09,16.58.05,24.86,0,2.47-.9,3.14-3.15,3.08-3.6-.1-7.21-.08-10.81,0-2,0-2.94-.65-2.93-2.82q.08-25.4,0-50.81c0-2.18,1-2.84,2.95-2.8,3.6.07,7.21.1,10.81,0,2.27-.07,3.17.65,3.13,3.1C373.4,83.63,373.49,92.1,373.49,100.57Z"/><path class="cls-2" d="M336.65,128.48c-7.36,2.12-11-1.7-13.71-8-2.48-5.66-5.83-11-8.88-16.36a4.71,4.71,0,0,1,.08-5.27c5-8.34,9.93-16.71,14.73-25.16,1-1.69,2-2.34,3.84-2.11.62.08,1.27-.05,1.89,0,1.38.18,3.21-.74,4,.62,1,1.64-.64,3-1.44,4.33-3.06,5-6.13,10-9.41,14.82a3.3,3.3,0,0,0-.07,4.1c5.82,10.15,11.52,20.36,17.34,30.5,1.09,1.9,1.09,2.67-1.39,2.52S339,128.48,336.65,128.48Z"/><path class="cls-1" d="M201.55,64.59A15.68,15.68,0,1,1,217.15,49,15.63,15.63,0,0,1,201.55,64.59Z"/></svg>